<svg width="16" height="15" viewBox="0 0 16 15" fill="none" xmlns="http://www.w3.org/2000/svg">
<path d="M7.52266 0.845492C7.67233 0.384837 8.32404 0.384836 8.47371 0.845491L9.90656 5.25532C9.97349 5.46133 10.1655 5.60081 10.3821 5.60081H15.0189C15.5032 5.60081 15.7046 6.22062 15.3127 6.50532L11.5615 9.23075C11.3863 9.35807 11.3129 9.58375 11.3799 9.78976L12.8127 14.1996C12.9624 14.6602 12.4352 15.0433 12.0433 14.7586L8.29208 12.0332C8.11684 11.9059 7.87954 11.9059 7.70429 12.0332L3.95307 14.7586C3.56121 15.0433 3.03397 14.6602 3.18365 14.1996L4.61649 9.78976C4.68343 9.58375 4.6101 9.35807 4.43485 9.23075L0.683628 6.50532C0.291772 6.22062 0.493159 5.60081 0.977521 5.60081H5.61429C5.8309 5.60081 6.02288 5.46133 6.08982 5.25532L7.52266 0.845492Z" fill="#FE7B5E"/>
</svg>
